<svg width="235" height="52" viewBox="0 0 235 52" fill="none" xmlns="http://www.w3.org/2000/svg">
<path d="M26 52C40.3594 52 52 40.3594 52 26C52 11.6406 40.3594 0 26 0C11.6406 0 0 11.6406 0 26C0 27.839 0.190927 29.6334 0.55404 31.3645C3.81849 30.855 5.48466 30.4521 6.87831 28.6138C5.70553 28.412 6.1011 28.0907 7.01585 27.1005C10.3771 23.8925 12.4799 22.5941 16.5079 20.9101C19.3107 19.8594 21.0359 19.3259 24.7619 18.709C27.6625 18.3028 29.3703 18.3888 32.4656 19.2593C26.3938 23.6655 21.4167 25.4727 8.80423 27.1191C19.265 27.1877 25.3516 26.4044 33.5661 20.0847L38.381 18.0212C41.004 16.9814 42.3022 16.4889 44.2963 16.6455C45.3973 16.6945 45.9043 16.9414 46.2222 17.4709C46.7285 17.5649 46.9513 17.7142 47.3228 18.0212C48.3703 19.227 48.3977 20.1949 48.0106 22.1482C47.7683 21.7254 47.6464 21.6018 47.3228 21.5979C43.6019 24.2881 40.9832 23.9824 37.6931 23.9365C40.5855 28.465 41.1529 30.9432 39.619 35.2169C37.9696 38.2707 37.2039 39.2866 36.8677 36.5926C36.4976 34.6458 36.2858 33.6396 35.9048 31.9153C34.9953 29.5726 34.2176 28.6327 32.4656 27.4603C28.762 30.0611 26.1724 31.8583 22.2857 32.1905C20.0941 34.1501 18.7742 35.1206 16.2328 36.5926C13.3163 38.1668 11.8952 38.5438 9.7672 38.2434C8.15289 37.9185 8.06603 37.5251 8.80423 36.5926C10.9091 34.0124 10.3175 33.0159 12.9312 30.9524C14.0033 30.106 13.1776 29.5605 11.8307 29.2115C6.28646 31.3688 3.7734 31.8887 0.554302 31.3657C3.02694 43.1507 13.48 52 26 52Z" fill="#333333"/>
<path d="M42.5878 18.5651C43.0801 19.2896 43.4325 19.3256 44.1639 18.884C43.9214 18.0722 43.5415 18.0665 42.5878 18.5651Z" fill="#333333"/>
<path fill-rule="evenodd" clip-rule="evenodd" d="M7.01585 27.1005C6.1011 28.0907 5.70553 28.412 6.87831 28.6138C5.48466 30.4521 3.81849 30.855 0.55404 31.3645L0.554302 31.3657C3.7734 31.8887 6.28646 31.3688 11.8307 29.2115C13.1776 29.5605 14.0033 30.106 12.9312 30.9524C10.3175 33.0159 10.9091 34.0124 8.80423 36.5926C8.06603 37.5251 8.15289 37.9185 9.7672 38.2434C11.8952 38.5438 13.3163 38.1668 16.2328 36.5926C18.7742 35.1206 20.0941 34.1501 22.2857 32.1905C26.1724 31.8583 28.762 30.0611 32.4656 27.4603C34.2176 28.6327 34.9953 29.5726 35.9048 31.9153C36.2858 33.6396 36.4976 34.6458 36.8677 36.5926C37.2039 39.2866 37.9696 38.2707 39.619 35.2169C41.1529 30.9432 40.5855 28.465 37.6931 23.9365C40.9832 23.9824 43.6019 24.2881 47.3228 21.5979C47.6464 21.6018 47.7683 21.7254 48.0106 22.1482C48.3977 20.1949 48.3703 19.227 47.3228 18.0212C46.9513 17.7142 46.7285 17.5649 46.2222 17.4709C45.9043 16.9414 45.3973 16.6945 44.2963 16.6455C42.3022 16.4889 41.004 16.9814 38.381 18.0212L33.5661 20.0847C25.3516 26.4044 19.265 27.1877 8.80423 27.1191C21.4167 25.4727 26.3938 23.6655 32.4656 19.2593C29.3703 18.3888 27.6625 18.3028 24.7619 18.709C21.0359 19.3259 19.3107 19.8594 16.5079 20.9101C12.4799 22.5941 10.3771 23.8925 7.01585 27.1005ZM42.5878 18.5651C43.0801 19.2896 43.4325 19.3256 44.1639 18.884C43.9214 18.0722 43.5415 18.0665 42.5878 18.5651Z" fill="white"/>
<path fill-rule="evenodd" clip-rule="evenodd" d="M56 39.2871V12H63.0023V22.2511H71.9839V12H79.0109V39.2871H71.9839V28.3723H63.0023V39.2871H56ZM105.362 39.2871H99.2012V37.0746C98.0878 39.0658 95.5145 39.9754 93.1144 39.9754C86.5823 39.9754 82.7471 34.9113 82.7471 29.036C82.7471 22.3248 87.6215 18.1212 93.1144 18.1212C96.4795 18.1212 98.3847 19.7436 99.2012 20.9974V18.8095H105.362V39.2871ZM88.9329 29.1589C88.9329 31.0518 90.3185 34.2722 94.0299 34.2722C96.232 34.2722 97.5682 33.2643 98.3352 32.0105C98.8795 31.1993 99.127 30.3143 99.2012 29.3802C99.2754 28.4706 99.0775 27.5364 98.6816 26.676C98.0135 25.2748 96.6032 23.849 94.0052 23.849C90.4669 23.849 88.9329 26.7989 88.9329 29.1097V29.1589ZM107.515 18.8341H113.898L117.066 31.568L120.431 18.8341H125.627L129.115 31.568L132.208 18.8341H138.542L132.233 39.3117H126.517L122.979 26.086L119.54 39.3117H113.824L107.515 18.8341ZM141.239 12H147.4L147.425 26.2581L153.19 18.8341H160.514L152.745 27.8314L160.292 39.2871H153.314L147.4 29.4539V39.2871H141.239V12ZM171.723 24.5865C171.673 24.144 171.599 23.0378 169.793 23.0378C168.506 23.0378 168.036 23.849 168.036 24.3898C168.036 25.324 169.57 25.9385 171.203 26.4302C174.692 27.3889 178.403 28.4214 178.403 32.8464C178.403 37.345 174.568 40 170.016 40C166.898 40 162.197 38.5988 161.628 33.2151H167.764C168.011 35.0834 169.818 35.0834 170.09 35.0834C171.129 35.0834 172.242 34.4934 172.242 33.5101C172.242 32.1089 170.733 31.9122 166.774 30.4126C164.102 29.5522 161.875 27.8314 161.875 25.0536C161.875 20.8253 165.587 18.1212 169.867 18.1212C172.589 18.1212 177.24 19.2028 177.76 24.5865H171.723ZM181.496 12H187.657V20.4565C189.835 18.1457 192.779 18.1457 193.62 18.1457C197.926 18.1457 203.765 21.194 203.765 28.9377C203.765 36.3126 198.594 40 193.373 40C190.478 40 188.251 38.5988 187.385 37.1238V39.2871H181.496V12ZM197.604 29.0114C197.604 26.381 195.6 23.849 192.556 23.849C189.29 23.849 187.435 26.4794 187.435 29.0114C187.435 31.8385 189.365 34.2722 192.433 34.2722C195.6 34.2722 197.604 31.7401 197.604 29.0606V29.0114ZM207.204 12H213.365V16.6462H207.204V12ZM207.204 18.8341H213.365V39.2871H207.204V18.8341ZM217.819 12.0246H223.98V39.3117H217.819V12.0246ZM228.434 12.0246H234.595V39.3117H228.434V12.0246Z" fill="#333333"/>
</svg>
