<svg width="1000" height="891" viewBox="0 0 1000 891" fill="none" xmlns="http://www.w3.org/2000/svg">
<path fill-rule="evenodd" clip-rule="evenodd" d="M0 886.121V733.333H39.2075V790.732H89.4984V733.333H128.845V886.121H89.4984V825.006H39.2075V886.121H0ZM276.392 886.121H241.895V873.733C235.661 884.882 221.252 889.975 207.814 889.975C171.239 889.975 149.764 861.62 149.764 828.723C149.764 791.145 177.057 767.607 207.814 767.607C226.656 767.607 237.323 776.692 241.895 783.712V771.462H276.392V886.121ZM184.4 829.411C184.4 840.01 192.158 858.041 212.94 858.041C225.27 858.041 232.751 852.398 237.046 845.378C240.094 840.835 241.48 835.88 241.895 830.65C242.311 825.557 241.203 820.326 238.986 815.508C235.245 807.663 227.348 799.679 212.801 799.679C192.99 799.679 184.4 816.197 184.4 829.136V829.411ZM288.446 771.599H324.189L341.923 842.9L360.765 771.599H389.859L409.393 842.9L426.711 771.599H462.178L426.85 886.259H394.846L375.035 812.205L355.777 886.259H323.774L288.446 771.599ZM477.279 733.333H511.776L511.915 813.168L544.195 771.599H585.204L541.701 821.978L583.957 886.121H544.888L511.776 831.063V886.121H477.279V733.333ZM647.963 803.808C647.686 801.331 647.271 795.137 637.157 795.137C629.953 795.137 627.321 799.679 627.321 802.707C627.321 807.938 635.91 811.379 645.054 814.132C664.588 819.5 685.37 825.281 685.37 850.058C685.37 875.247 663.896 890.113 638.404 890.113C620.948 890.113 594.625 882.267 591.438 852.122H625.797C627.182 862.584 637.296 862.584 638.82 862.584C644.638 862.584 650.873 859.28 650.873 853.774C650.873 845.928 642.422 844.827 620.255 836.431C605.292 831.613 592.823 821.978 592.823 806.424C592.823 782.749 613.605 767.607 637.573 767.607C652.812 767.607 678.858 773.664 681.768 803.808H647.963ZM702.688 733.333H737.185V780.684C749.376 767.745 765.863 767.745 770.573 767.745C794.68 767.745 827.376 784.813 827.376 828.172C827.376 869.466 798.42 890.113 769.188 890.113C752.978 890.113 740.51 882.267 735.661 874.008V886.121H702.688V733.333ZM792.879 828.585C792.879 813.857 781.657 799.679 764.616 799.679C746.329 799.679 735.938 814.407 735.938 828.585C735.938 844.414 746.744 858.041 763.924 858.041C781.657 858.041 792.879 843.864 792.879 828.86V828.585ZM846.633 733.333H881.13V759.349H846.633V733.333ZM846.633 771.599H881.13V886.121H846.633V771.599ZM906.068 733.471H940.565V886.259H906.068V733.471ZM965.503 733.471H1000V886.259H965.503V733.471Z" fill="#333333"/>
<path d="M500 666.667C684.095 666.667 833.333 517.428 833.333 333.333C833.333 149.238 684.095 0 500 0C315.905 0 166.667 149.238 166.667 333.333C166.667 356.91 169.114 379.916 173.77 402.109C215.622 395.577 236.983 390.411 254.85 366.843C239.815 364.256 244.886 360.137 256.614 347.443C299.706 306.315 326.665 289.668 378.307 268.078C414.239 254.608 436.358 247.768 484.127 239.859C521.314 234.651 543.209 235.754 582.892 246.914C505.049 303.404 441.239 326.574 279.541 347.681C413.654 348.56 491.687 338.517 597.002 257.496L658.73 231.041C692.359 217.71 709.002 211.396 734.568 213.404C748.683 214.033 755.183 217.198 759.259 223.986C765.75 225.191 768.606 227.106 773.369 231.041C786.799 246.5 787.15 258.909 782.187 283.951C779.081 278.531 777.518 276.946 773.369 276.896C725.666 311.386 692.093 307.467 649.912 306.879C686.994 364.936 694.267 396.708 674.603 451.499C653.456 490.65 643.64 503.675 639.33 469.136C634.585 444.177 631.869 431.277 626.984 409.171C615.324 379.136 605.354 367.086 582.892 352.055C535.411 385.399 502.211 408.44 452.381 412.699C424.284 437.822 407.362 450.264 374.78 469.136C337.388 489.318 319.169 494.151 291.887 490.3C271.191 486.135 270.077 481.091 279.541 469.136C306.527 436.057 298.942 423.281 332.451 396.825C346.196 385.975 335.611 378.981 318.342 374.506C247.262 402.164 215.044 408.829 173.773 402.125C205.474 553.214 339.488 666.667 500 666.667Z" fill="#333333"/>
<path d="M712.664 238.014C718.975 247.302 723.494 247.764 732.871 242.102C729.761 231.695 724.891 231.621 712.664 238.014Z" fill="#333333"/>
</svg>
